<svg width="45" height="45" viewBox="0 0 45 45" fill="none" xmlns="http://www.w3.org/2000/svg">
<g clip-path="url(#clip0_1334_1187)">
<path d="M2.87415 7.14767H23.3667C38.3766 7.14767 44.7034 15.079 44.7034 25.8344C44.7034 36.5897 38.3673 44.605 23.3667 44.605H13.7559V40.3084H2.87415V7.14767ZM22.9028 33.1413C28.7658 33.1413 31.187 30.1589 31.187 25.8344C31.187 21.5099 28.7658 18.6113 22.9028 18.6113H13.7559V33.1413H22.9028Z" fill="#275F64"/>
<path fill-rule="evenodd" clip-rule="evenodd" d="M0.7034 0.60498H23.3667C38.3766 0.60498 44.7034 8.45247 44.7034 19.2917C44.7034 30.1309 38.3766 38.0623 23.3667 38.0623H21.7896H13.7559V44.605H0.703369V37.0091H0.7034V0.60498ZM13.7466 26.5986H22.8936C28.7565 26.5986 31.1778 23.5323 31.1778 19.2917C31.1778 15.0511 28.7565 12.0687 22.8936 12.0687H13.7466V26.5986Z" fill="#86CFC7"/>
</g>
<defs>
<clipPath id="clip0_1334_1187">
<rect width="44" height="44" fill="white" transform="translate(0.703369 0.60498)"/>
</clipPath>
</defs>
</svg>